<mxfile host="app.diagrams.net" agent="Mozilla/5.0 (Macintosh; Intel Mac OS X 10_15_7) AppleWebKit/537.36 (KHTML, like Gecko) Chrome/135.0.0.0 Safari/537.36" version="28.0.6">
  <diagram name="Page-1" id="AFeGkOiiY4KAVGo6Q9TR">
    <mxGraphModel dx="1340" dy="755" grid="1" gridSize="10" guides="1" tooltips="1" connect="1" arrows="1" fold="1" page="1" pageScale="1" pageWidth="1169" pageHeight="1654" math="0" shadow="0">
      <root>
        <mxCell id="0" />
        <mxCell id="1" parent="0" />
        <mxCell id="NzapMORj6mIefn-3cKjK-1" value="&lt;b&gt;Account Request Initiation&lt;/b&gt;" style="rounded=0;whiteSpace=wrap;html=1;fillColor=#d5e8d4;strokeColor=#82b366;" vertex="1" parent="1">
          <mxGeometry x="480" y="10" width="120" height="60" as="geometry" />
        </mxCell>
        <mxCell id="NzapMORj6mIefn-3cKjK-2" value="&lt;b&gt;Brexit&lt;br&gt;/ MSBNA&lt;/b&gt;" style="ellipse;whiteSpace=wrap;html=1;aspect=fixed;fillColor=#fff2cc;strokeColor=#d6b656;" vertex="1" parent="1">
          <mxGeometry x="280" y="90" width="80" height="80" as="geometry" />
        </mxCell>
        <mxCell id="NzapMORj6mIefn-3cKjK-26" style="edgeStyle=orthogonalEdgeStyle;rounded=0;orthogonalLoop=1;jettySize=auto;html=1;exitX=0.5;exitY=1;exitDx=0;exitDy=0;entryX=0.5;entryY=0;entryDx=0;entryDy=0;" edge="1" parent="1" source="NzapMORj6mIefn-3cKjK-3" target="NzapMORj6mIefn-3cKjK-5">
          <mxGeometry relative="1" as="geometry" />
        </mxCell>
        <mxCell id="NzapMORj6mIefn-3cKjK-3" value="&lt;b&gt;COB Correction&lt;/b&gt;" style="ellipse;whiteSpace=wrap;html=1;aspect=fixed;fillColor=#fff2cc;strokeColor=#d6b656;" vertex="1" parent="1">
          <mxGeometry x="505" y="90" width="80" height="80" as="geometry" />
        </mxCell>
        <mxCell id="NzapMORj6mIefn-3cKjK-4" value="&lt;div&gt;&lt;b&gt;&lt;br&gt;&lt;/b&gt;&lt;/div&gt;&lt;div&gt;&lt;span style=&quot;background-color: transparent; color: light-dark(rgb(0, 0, 0), rgb(255, 255, 255));&quot;&gt;&lt;b&gt;Soft&lt;/b&gt;&lt;/span&gt;&lt;/div&gt;&lt;b&gt;Validation&lt;/b&gt;&lt;div&gt;&lt;br&gt;&lt;/div&gt;" style="ellipse;whiteSpace=wrap;html=1;aspect=fixed;fillColor=#d5e8d4;strokeColor=#82b366;" vertex="1" parent="1">
          <mxGeometry x="710" y="90" width="80" height="80" as="geometry" />
        </mxCell>
        <mxCell id="NzapMORj6mIefn-3cKjK-5" value="&lt;b&gt;Submission&lt;/b&gt;" style="rounded=0;whiteSpace=wrap;html=1;fillColor=#d5e8d4;strokeColor=#82b366;" vertex="1" parent="1">
          <mxGeometry x="485" y="200" width="120" height="40" as="geometry" />
        </mxCell>
        <mxCell id="NzapMORj6mIefn-3cKjK-6" value="&lt;b&gt;Regulatory&lt;/b&gt;" style="rounded=1;whiteSpace=wrap;html=1;fillColor=#d5e8d4;strokeColor=#82b366;" vertex="1" parent="1">
          <mxGeometry x="220" y="290" width="120" height="60" as="geometry" />
        </mxCell>
        <mxCell id="NzapMORj6mIefn-3cKjK-7" value="&lt;b&gt;CSC&lt;/b&gt;" style="rounded=1;whiteSpace=wrap;html=1;fillColor=#d5e8d4;strokeColor=#82b366;" vertex="1" parent="1">
          <mxGeometry x="400" y="290" width="120" height="60" as="geometry" />
        </mxCell>
        <mxCell id="NzapMORj6mIefn-3cKjK-8" value="&lt;b&gt;CID&lt;/b&gt;" style="rounded=1;whiteSpace=wrap;html=1;fillColor=#fff2cc;strokeColor=#d6b656;" vertex="1" parent="1">
          <mxGeometry x="585" y="290" width="120" height="60" as="geometry" />
        </mxCell>
        <mxCell id="NzapMORj6mIefn-3cKjK-11" value="&lt;b&gt;Business&lt;/b&gt; &lt;b&gt;Approval&lt;/b&gt;" style="rounded=1;whiteSpace=wrap;html=1;fillColor=#d5e8d4;strokeColor=#82b366;" vertex="1" parent="1">
          <mxGeometry x="790" y="290" width="120" height="60" as="geometry" />
        </mxCell>
        <mxCell id="NzapMORj6mIefn-3cKjK-38" style="edgeStyle=orthogonalEdgeStyle;rounded=0;orthogonalLoop=1;jettySize=auto;html=1;exitX=0.5;exitY=1;exitDx=0;exitDy=0;entryX=0.5;entryY=0;entryDx=0;entryDy=0;" edge="1" parent="1" source="NzapMORj6mIefn-3cKjK-12" target="NzapMORj6mIefn-3cKjK-14">
          <mxGeometry relative="1" as="geometry" />
        </mxCell>
        <mxCell id="NzapMORj6mIefn-3cKjK-12" value="&lt;b&gt;Account Creation&lt;/b&gt;" style="rounded=0;whiteSpace=wrap;html=1;fillColor=#d5e8d4;strokeColor=#82b366;" vertex="1" parent="1">
          <mxGeometry x="480" y="410" width="120" height="60" as="geometry" />
        </mxCell>
        <mxCell id="NzapMORj6mIefn-3cKjK-39" style="edgeStyle=orthogonalEdgeStyle;rounded=0;orthogonalLoop=1;jettySize=auto;html=1;exitX=0.5;exitY=1;exitDx=0;exitDy=0;entryX=0.5;entryY=0;entryDx=0;entryDy=0;" edge="1" parent="1" source="NzapMORj6mIefn-3cKjK-14" target="NzapMORj6mIefn-3cKjK-15">
          <mxGeometry relative="1" as="geometry" />
        </mxCell>
        <mxCell id="NzapMORj6mIefn-3cKjK-14" value="&lt;b&gt;X Approve&lt;/b&gt;" style="rounded=1;whiteSpace=wrap;html=1;fillColor=#d5e8d4;strokeColor=#82b366;" vertex="1" parent="1">
          <mxGeometry x="480" y="490" width="120" height="60" as="geometry" />
        </mxCell>
        <mxCell id="NzapMORj6mIefn-3cKjK-40" style="edgeStyle=orthogonalEdgeStyle;rounded=0;orthogonalLoop=1;jettySize=auto;html=1;exitX=0.5;exitY=1;exitDx=0;exitDy=0;entryX=0.5;entryY=0;entryDx=0;entryDy=0;" edge="1" parent="1" source="NzapMORj6mIefn-3cKjK-15" target="NzapMORj6mIefn-3cKjK-16">
          <mxGeometry relative="1" as="geometry" />
        </mxCell>
        <mxCell id="NzapMORj6mIefn-3cKjK-15" value="&lt;b&gt;Account Activation&lt;/b&gt;" style="rounded=0;whiteSpace=wrap;html=1;fillColor=#d5e8d4;strokeColor=#82b366;" vertex="1" parent="1">
          <mxGeometry x="480" y="580" width="120" height="60" as="geometry" />
        </mxCell>
        <mxCell id="NzapMORj6mIefn-3cKjK-16" value="&lt;b&gt;Post Account Setup&lt;/b&gt;" style="rounded=0;whiteSpace=wrap;html=1;fillColor=#fff2cc;strokeColor=#d6b656;" vertex="1" parent="1">
          <mxGeometry x="480" y="680" width="120" height="60" as="geometry" />
        </mxCell>
        <mxCell id="NzapMORj6mIefn-3cKjK-21" style="edgeStyle=orthogonalEdgeStyle;rounded=0;orthogonalLoop=1;jettySize=auto;html=1;exitX=0.5;exitY=1;exitDx=0;exitDy=0;entryX=0.411;entryY=0.006;entryDx=0;entryDy=0;entryPerimeter=0;" edge="1" parent="1" source="NzapMORj6mIefn-3cKjK-1" target="NzapMORj6mIefn-3cKjK-3">
          <mxGeometry relative="1" as="geometry" />
        </mxCell>
        <mxCell id="NzapMORj6mIefn-3cKjK-23" value="" style="endArrow=classic;html=1;rounded=0;exitX=1;exitY=1;exitDx=0;exitDy=0;entryX=0.361;entryY=-0.007;entryDx=0;entryDy=0;entryPerimeter=0;" edge="1" parent="1" source="NzapMORj6mIefn-3cKjK-1" target="NzapMORj6mIefn-3cKjK-4">
          <mxGeometry width="50" height="50" relative="1" as="geometry">
            <mxPoint x="560" y="280" as="sourcePoint" />
            <mxPoint x="610" y="230" as="targetPoint" />
          </mxGeometry>
        </mxCell>
        <mxCell id="NzapMORj6mIefn-3cKjK-25" value="" style="endArrow=classic;html=1;rounded=0;exitX=0;exitY=1;exitDx=0;exitDy=0;entryX=1;entryY=0;entryDx=0;entryDy=0;" edge="1" parent="1" source="NzapMORj6mIefn-3cKjK-1" target="NzapMORj6mIefn-3cKjK-2">
          <mxGeometry width="50" height="50" relative="1" as="geometry">
            <mxPoint x="560" y="280" as="sourcePoint" />
            <mxPoint x="610" y="230" as="targetPoint" />
          </mxGeometry>
        </mxCell>
        <mxCell id="NzapMORj6mIefn-3cKjK-28" value="" style="endArrow=classic;html=1;rounded=0;exitX=0;exitY=1;exitDx=0;exitDy=0;entryX=0.891;entryY=-0.055;entryDx=0;entryDy=0;entryPerimeter=0;" edge="1" parent="1" source="NzapMORj6mIefn-3cKjK-5" target="NzapMORj6mIefn-3cKjK-6">
          <mxGeometry width="50" height="50" relative="1" as="geometry">
            <mxPoint x="560" y="340" as="sourcePoint" />
            <mxPoint x="610" y="290" as="targetPoint" />
          </mxGeometry>
        </mxCell>
        <mxCell id="NzapMORj6mIefn-3cKjK-29" value="" style="endArrow=classic;html=1;rounded=0;exitX=0.25;exitY=1;exitDx=0;exitDy=0;entryX=0.5;entryY=0;entryDx=0;entryDy=0;" edge="1" parent="1" source="NzapMORj6mIefn-3cKjK-5" target="NzapMORj6mIefn-3cKjK-7">
          <mxGeometry width="50" height="50" relative="1" as="geometry">
            <mxPoint x="560" y="340" as="sourcePoint" />
            <mxPoint x="610" y="290" as="targetPoint" />
          </mxGeometry>
        </mxCell>
        <mxCell id="NzapMORj6mIefn-3cKjK-31" value="" style="endArrow=classic;html=1;rounded=0;exitX=0.632;exitY=0.967;exitDx=0;exitDy=0;exitPerimeter=0;entryX=0.25;entryY=0;entryDx=0;entryDy=0;" edge="1" parent="1" source="NzapMORj6mIefn-3cKjK-5" target="NzapMORj6mIefn-3cKjK-8">
          <mxGeometry width="50" height="50" relative="1" as="geometry">
            <mxPoint x="560" y="340" as="sourcePoint" />
            <mxPoint x="610" y="290" as="targetPoint" />
          </mxGeometry>
        </mxCell>
        <mxCell id="NzapMORj6mIefn-3cKjK-32" value="" style="endArrow=classic;html=1;rounded=0;exitX=1;exitY=1;exitDx=0;exitDy=0;entryX=0.074;entryY=-0.005;entryDx=0;entryDy=0;entryPerimeter=0;" edge="1" parent="1" source="NzapMORj6mIefn-3cKjK-5" target="NzapMORj6mIefn-3cKjK-11">
          <mxGeometry width="50" height="50" relative="1" as="geometry">
            <mxPoint x="560" y="340" as="sourcePoint" />
            <mxPoint x="610" y="290" as="targetPoint" />
          </mxGeometry>
        </mxCell>
        <mxCell id="NzapMORj6mIefn-3cKjK-34" value="" style="endArrow=classic;html=1;rounded=0;exitX=0.916;exitY=1.03;exitDx=0;exitDy=0;exitPerimeter=0;entryX=0;entryY=0;entryDx=0;entryDy=0;" edge="1" parent="1" source="NzapMORj6mIefn-3cKjK-6" target="NzapMORj6mIefn-3cKjK-12">
          <mxGeometry width="50" height="50" relative="1" as="geometry">
            <mxPoint x="560" y="440" as="sourcePoint" />
            <mxPoint x="610" y="390" as="targetPoint" />
          </mxGeometry>
        </mxCell>
        <mxCell id="NzapMORj6mIefn-3cKjK-35" value="" style="endArrow=classic;html=1;rounded=0;exitX=0.5;exitY=1;exitDx=0;exitDy=0;entryX=0.333;entryY=0;entryDx=0;entryDy=0;entryPerimeter=0;" edge="1" parent="1" source="NzapMORj6mIefn-3cKjK-7" target="NzapMORj6mIefn-3cKjK-12">
          <mxGeometry width="50" height="50" relative="1" as="geometry">
            <mxPoint x="560" y="440" as="sourcePoint" />
            <mxPoint x="610" y="390" as="targetPoint" />
          </mxGeometry>
        </mxCell>
        <mxCell id="NzapMORj6mIefn-3cKjK-36" value="" style="endArrow=classic;html=1;rounded=0;exitX=0.25;exitY=1;exitDx=0;exitDy=0;entryX=0.699;entryY=0.046;entryDx=0;entryDy=0;entryPerimeter=0;" edge="1" parent="1" source="NzapMORj6mIefn-3cKjK-8" target="NzapMORj6mIefn-3cKjK-12">
          <mxGeometry width="50" height="50" relative="1" as="geometry">
            <mxPoint x="560" y="440" as="sourcePoint" />
            <mxPoint x="610" y="390" as="targetPoint" />
          </mxGeometry>
        </mxCell>
        <mxCell id="NzapMORj6mIefn-3cKjK-37" value="" style="endArrow=classic;html=1;rounded=0;exitX=0;exitY=1;exitDx=0;exitDy=0;entryX=1;entryY=0;entryDx=0;entryDy=0;" edge="1" parent="1" source="NzapMORj6mIefn-3cKjK-11" target="NzapMORj6mIefn-3cKjK-12">
          <mxGeometry width="50" height="50" relative="1" as="geometry">
            <mxPoint x="560" y="440" as="sourcePoint" />
            <mxPoint x="610" y="390" as="targetPoint" />
          </mxGeometry>
        </mxCell>
      </root>
    </mxGraphModel>
  </diagram>
</mxfile>
